<?xml version="1.0" standalone="no"?>
<!DOCTYPE svg PUBLIC "-//W3C//DTD SVG 20010904//EN"
 "http://www.w3.org/TR/2001/REC-SVG-20010904/DTD/svg10.dtd">
<svg version="1.0" xmlns="http://www.w3.org/2000/svg"
 width="800.000000pt" height="800.000000pt" viewBox="0 0 800.000000 800.000000"
 preserveAspectRatio="xMidYMid meet">
<metadata>
Created by potrace 1.11, written by Peter Selinger 2001-2013
</metadata>
<g transform="translate(0.000000,800.000000) scale(0.100000,-0.100000)"
fill="#000000" stroke="none">
<path d="M2978 5815 c-2 -1 -39 -6 -83 -9 -70 -6 -196 -24 -290 -41 -284 -53
-622 -178 -895 -332 -135 -77 -147 -84 -242 -149 -260 -179 -512 -415 -709
-664 -193 -243 -346 -501 -472 -795 -48 -111 -140 -368 -152 -423 -2 -9 -17
-71 -34 -137 -28 -114 -43 -189 -56 -280 -4 -22 -8 -51 -10 -65 -4 -23 -9 -60
-21 -165 -2 -22 -7 -160 -11 -307 l-6 -268 4002 0 4001 0 0 160 0 160 -403 0
-403 0 0 368 c1 474 -4 554 -50 736 -108 432 -406 776 -777 896 -74 24 -71 23
-142 35 -77 13 -84 13 -345 14 l-245 2 -49 62 c-321 411 -777 764 -1251 967
-99 42 -355 132 -355 125 0 -2 -18 2 -39 10 -41 14 -204 51 -269 61 -20 3 -48
7 -62 10 -14 2 -47 7 -75 10 -27 3 -61 8 -75 11 -26 5 -477 13 -482 8z m278
-591 c33 -102 38 -120 50 -196 l7 -38 -132 0 c-126 0 -132 1 -126 19 3 11 7
28 9 38 14 71 52 191 89 282 l30 74 19 -38 c11 -20 35 -84 54 -141z m-512 74
c-5 -13 -24 -79 -45 -148 -20 -69 -41 -124 -46 -123 -5 1 -29 4 -54 7 -24 3
-54 8 -66 10 -11 3 -42 8 -67 11 -25 4 -46 11 -46 15 0 25 291 250 322 250 5
0 6 -10 2 -22z m962 -61 c39 -28 101 -79 138 -112 73 -64 73 -66 -9 -79 -22
-3 -51 -8 -65 -10 -68 -12 -73 -12 -81 14 -4 14 -19 66 -32 115 -14 50 -29 98
-32 108 -11 27 5 20 81 -36z m-2000 -354 c63 -29 63 -29 7 -125 -85 -145 -215
-444 -283 -653 -18 -55 -33 -101 -34 -102 -1 -1 -33 4 -71 12 -39 7 -83 15
-100 18 -91 16 -346 75 -353 82 -9 9 166 248 262 360 172 199 459 452 499 439
10 -3 43 -17 73 -31z m3088 -10 c127 -97 342 -301 331 -312 -6 -6 -9 -6 -85
-14 -59 -7 -171 -38 -216 -62 -15 -8 -31 -12 -36 -9 -5 3 -31 49 -58 102 -54
104 -67 129 -117 210 -18 29 -33 56 -33 60 0 6 133 70 149 72 3 0 32 -21 65
-47z m-2587 -158 c10 -2 68 -15 128 -29 61 -13 143 -30 182 -36 71 -11 73 -13
69 -38 -2 -15 -7 -47 -10 -72 -9 -71 -17 -133 -21 -160 -12 -77 -31 -247 -40
-357 -4 -39 -8 -80 -10 -90 -2 -10 -4 -31 -4 -46 -1 -28 -1 -28 -53 -23 -64 7
-121 13 -213 21 -38 3 -104 10 -145 16 -72 9 -100 12 -200 24 -59 7 -92 13
-98 19 -10 11 109 319 185 476 44 92 101 194 150 273 18 29 29 37 43 32 10 -3
27 -8 37 -10z m2047 -78 c63 -98 130 -215 179 -316 l37 -75 -25 -30 c-94 -116
-143 -189 -213 -315 -9 -16 -17 -17 -112 -26 -36 -3 -81 -7 -100 -10 -142 -17
-160 -17 -161 2 0 10 -2 26 -4 35 -2 9 -6 50 -9 90 -3 40 -8 91 -11 113 -2 22
-7 69 -10 105 -6 70 -8 83 -26 205 -6 44 -12 89 -14 100 -1 11 -5 43 -9 72 -9
58 -10 57 79 69 28 3 59 8 70 10 11 2 31 6 45 9 14 3 68 15 120 28 52 13 99
22 103 19 4 -2 32 -41 61 -85z m-867 -60 c1 -12 7 -60 13 -107 6 -47 13 -105
15 -130 3 -25 7 -56 9 -70 3 -14 8 -61 11 -105 4 -44 8 -93 10 -110 3 -16 7
-61 10 -100 3 -38 8 -83 11 -98 l6 -29 -294 4 -293 3 1 35 c1 40 13 162 19
200 2 14 7 52 10 85 7 77 15 153 20 185 4 30 24 155 29 190 3 14 5 35 5 47 1
21 3 21 209 21 206 0 208 0 209 -21z m2825 -397 c324 -76 581 -420 623 -837 4
-34 7 -236 7 -450 l1 -388 -75 -3 -75 -3 -1 388 c0 213 -3 415 -6 448 -14 129
-64 269 -134 372 -202 297 -544 367 -813 165 l-48 -36 30 -18 c16 -10 32 -18
35 -18 2 0 26 -17 52 -38 122 -96 208 -231 254 -399 20 -72 22 -107 26 -470
l4 -393 -399 0 -399 0 2 418 c1 437 5 485 49 636 92 316 316 565 560 623 93
22 220 23 307 3z m-922 2 c0 -5 -9 -17 -21 -28 -36 -33 -137 -192 -183 -287
-58 -123 -111 -293 -121 -387 -2 -19 -7 -48 -10 -65 -4 -16 -9 -223 -11 -460
-2 -236 -3 -436 -4 -442 0 -10 -56 -13 -244 -13 l-244 0 3 438 c1 240 5 448 9
462 3 14 10 48 15 77 14 71 56 193 92 266 60 122 121 199 245 315 49 46 198
114 274 124 58 9 200 8 200 0z m-4280 -496 c20 -3 161 -31 205 -41 6 -1 27 -5
47 -9 32 -7 37 -12 33 -30 -8 -36 -44 -229 -49 -261 -2 -16 -8 -55 -11 -85 -4
-30 -9 -64 -11 -74 -2 -11 -6 -42 -9 -70 -3 -28 -7 -67 -10 -86 -4 -35 -15
-166 -20 -250 -2 -25 -4 -86 -5 -137 -1 -50 -5 -103 -7 -117 l-5 -26 -392 2
-391 3 1 35 c1 69 15 240 24 295 5 31 12 82 16 113 3 31 8 60 10 63 2 3 10 41
19 85 47 225 188 640 226 665 5 3 75 -12 157 -33 81 -20 158 -39 172 -42z
m770 -131 c36 -4 72 -8 80 -10 8 -2 44 -6 80 -10 36 -4 73 -9 84 -11 10 -2 51
-6 90 -10 39 -3 82 -7 96 -10 14 -2 63 -7 110 -10 47 -4 92 -8 100 -10 8 -1
23 -3 33 -3 20 -1 20 -31 1 -366 -6 -108 -12 -309 -14 -497 l-2 -118 -445 0
c-244 0 -442 3 -440 8 3 4 8 81 11 171 3 90 8 166 10 170 2 3 7 48 10 99 4 51
9 100 10 110 2 9 7 42 11 72 4 30 9 64 11 75 7 51 16 106 29 170 8 39 17 86
20 105 4 19 8 42 10 50 2 8 4 20 4 27 1 6 9 10 19 8 9 -1 46 -6 82 -10z m2315
-137 c-5 -40 -9 -262 -10 -493 l-1 -420 -86 -3 -86 -3 -2 178 c-1 98 -3 221
-5 273 -8 239 -17 463 -20 486 -1 13 1 27 5 29 4 3 45 8 91 11 46 4 86 8 88
10 2 2 11 4 19 4 12 0 13 -12 7 -72z m-897 31 c160 0 292 -3 293 -7 4 -30 8
-87 13 -208 4 -77 9 -178 11 -225 2 -46 7 -180 10 -296 l6 -213 -356 0 -356 0
6 275 c4 151 8 306 10 343 2 37 7 126 10 197 4 72 9 133 11 137 3 4 14 5 27 2
12 -2 154 -5 315 -5z"/>
</g>
</svg>
